# xmcd
#
# Track frame offsets:
#	150
#	12700
#	26358
#	38908
#	49215
#	68626
#	81928
#	93607
#	106052
#	119110
#	135261
#	148807
#	158787
#	168362
#	180222
#	195663
#	205629
#	222407
#	238342
#	250599
#
# Disc length: 3499 seconds
#
# Revision: 0
# Processed by: cddbd v1.5.2PL0 Copyright (c) Steve Scherf et al.
# Submitted via: SynApp - FreeCDDB Version: 2.3
#
DISCID=170da914
DTITLE=Various Artits - 20 Country Supertracks
DYEAR=1988
DGENRE=Country
TTITLE0=The Statler Brothers - Take Me Home, Country Roads
TTITLE1=Rick Johnson - I've Heard Those Very Lines Before
TTITLE2=Tom T. Hall - Faster Horses
TTITLE3=Ferlin Huskey - The Wings Of A Dove
TTITLE4=Faron Young - Gentle On My Mind
TTITLE5=Reba McEntire - Sweet Dreams
TTITLE6=Tony Joe White - Susie-Q
TTITLE7=Bobby Bare - Come Sundown
TTITLE8=The Everly Brothers - The First In Line
TTITLE9=Larry Weiss - Rhinestone Cowboy
TTITLE10=Tom T. Hall - Ballad Of Forty Dollars
TTITLE11=Bobby Bare - Help Me Make It Through The Night
TTITLE12=Ferlin Husky - Gone
TTITLE13=Nick Nixon - Rockin' In Rosalee's Boat
TTITLE14=Micky Wolf - Country Boy
TTITLE15=Johnny Cash - Thing Called Love
TTITLE16=Bobby Bare - Sylvia's Mother
TTITLE17=The Everly Brothers - These Shoes
TTITLE18=Terry Bradshaw - I'm So Lonesome I Could Cry
TTITLE19=Jacky Ward - Let Me Be Your Man
EXTD=
EXTT0=
EXTT1=
EXTT2=
EXTT3=
EXTT4=
EXTT5=
EXTT6=
EXTT7=
EXTT8=
EXTT9=
EXTT10=
EXTT11=
EXTT12=
EXTT13=
EXTT14=
EXTT15=
EXTT16=
EXTT17=
EXTT18=
EXTT19=
PLAYORDER=
